Love for All and Sharing is the first step to solving all the problems of humanity.

Websites I want to share.

    
http://www.shareintl.org/

    
http://www.lightmiddleway.com


Thank you very much

No credit for me...credit to EVERYONE for sharing
 
http://thepiratebay.org/user/raymondhome/

PLOT
A caveman seeks revenge on a much larger competitor for the hand of a beautiful cavewoman.

General
Complete name : Caveman 1981dvdrip BigPerm LKRG.m4v
Format : MPEG-4
Format profile : Base Media / Version 2
Codec ID : mp42
File size : 1.83 GiB
Duration : 1h 31mn
Overall bit rate : 2 844 Kbps

Video
ID : 1
Format : AVC
Format/Info : Advanced Video Codec
Format profile : Main@L3.0
Format settings, CABAC : Yes
Format settings, ReFrames : 2 frames
Codec ID : avc1
Codec ID/Info : Advanced Video Coding
Duration : 1h 31mn
Bit rate mode : Variable
Bit rate : 2 711 Kbps
Width : 712 pixels
Height : 480 pixels
Display aspect ratio : 4:3
Frame rate mode : Variable
Frame rate : 24.013 fps
Minimum frame rate : 11.704 fps
Maximum frame rate : 55.147 fps
Original frame rate : 23.976 fps
Resolution : 8 bits
Colorimetry : 4:2:0
Scan type : Progressive
Bits/(Pixel*Frame) : 0.330
Stream size : 1.74 GiB (95%)
Writing library : x264 core 79

Audio
ID : 2
Format : AAC
Format/Info : Advanced Audio Codec
Format version : Version 4
Format profile : LC
Format settings, SBR : No
Codec ID : 40
Duration : 1h 31mn
Bit rate mode : Variable
Bit rate : 127 Kbps
Maximum bit rate : 160 Kbps
Channel(s) : 2 channels
Channel positions : Front: L R
Sampling rate : 48.0 KHz
Stream size : 83.7 MiB (4%)
Language : English

credit BigPerm1828 BIG BIG BIG TIME & to all the people who made it possible for me to share this with everyone...especially EVERYONE involve in the production of the movie...IF YOU LIKE IT...BUY IT :)

*****help what we can with others in need...the world is ONE big family*****